

FULL_INFOs



99.99% &gt;&gt;&gt; SYNCED GUARANTEED 

Source : BluRay ~ 720p

My Media Player of Choice "VLC Media Player"

Spoken Language : English Only

Audio : 6 ~ Channels

 
http://www.imdb.com/title/tt0313608/


Subs Info : MULTI_SUBS

 
http://www.subtitleseeker.com/0313608/Deserter/Subtitles/

12 Subtitles In 7 Languages Use Link Provided 
 
http://www.subtitleseeker.com/0313608/Deserter/Subtitles/

12 Subtitles In 7 Languages Only @ SubtitleSeeker
 
http://www.subtitleseeker.com/0313608/Deserter/Subtitles/

All .srt subs can be turned On/Off



 
http://www.imdb.com/title/tt0313608/




General 

Complete name : Deserter 2002.720p.BluRay.x264 . NVEE.mp4 
Format : MPEG-4 
Format profile : Base Media 
Codec ID : isom 
File size : 1.01 GiB 
Duration : 1h 34mn 
Overall bit rate : 1 541 Kbps 
Encoded date : UTC 2013-03-22 01:46:21 
Tagged date : UTC 2013-03-22 01:46:21 

Video 

ID : 1 
Format : AVC 
Format/Info : Advanced Video Codec 
Format profile : High@L3.1 
Format settings, CABAC : Yes 
Format settings, ReFrames : 4 frames 
Codec ID : avc1 
Codec ID/Info : Advanced Video Coding 
Duration : 1h 34mn 
Bit rate : 1 156 Kbps 
Maximum bit rate : 5 293 Kbps 
Width : 1 280 pixels 
Height : 688 pixels 
Display aspect ratio : 1.85:1 
Frame rate mode : Constant 
Frame rate : 23.976 fps 
Color space : YUV 
Chroma subsampling : 4:2:0 
Bit depth : 8 bits 
Scan type : Progressive 
Bits/(Pixel*Frame) : 0.055 
Stream size : 779 MiB (75%) 
Title : 264#trackID=1:fps=23.976@GPAC0.5.1-DEV-rev4283 
Writing library : x264 core 129 r2245 bc13772 

Encoded date : UTC 2013-03-22 01:46:21 
Tagged date : UTC 2013-03-22 01:46:43 
Color primaries : Generic film 

Audio 

ID : 2 
Format : AC-3 
Format/Info : Audio Coding 3 
Mode extension : CM (complete main) 
Format settings, Endianness : Big 
Codec ID : ac-3 
Duration : 1h 34mn 
Bit rate mode : Constant 
Bit rate : 384 Kbps 
Channel(s) : 6 channels 
Channel positions : Front: L C R, Side: L R, LFE 
Sampling rate : 48.0 KHz 
Bit depth : 16 bits 
Compression mode : Lossy 
Stream size : 259 MiB (25%) 
Title : 720p - [1] English_audio.ac3#trackID=1:lang=en@GPAC0.5.1-DEV-rev4283 
Language : English 
Encoded date : UTC 2013-03-22 01:46:37 
Tagged date : UTC 2013-03-22 01:46:43 



Plot

Deserter is a 2002 adventure movie set in Algeria in the late 1950ΓÇÖs and early 1960ΓÇÖs. It tells the story of Simon Murray (Paul Fox) who is confronted with insurmountable class differences when he meets the woman of his life in 1950ΓÇÖs England. Disillusioned, he decides to join the Foreign Legion and is send to a remote outpost in Algeria where he is subject to brutal training.
Here, he develops a deep friendship with Belgian fellow-Legionnaire Pascal Dupont (Tom Hardy). As the training nears the final stages, both Legionnaires become entangled in the brutal civil war, with FLN rebels seeking independence from France, ΓÇÿPied NoirsΓÇÖ (ΓÇÿBlack FeetΓÇÖ) French settlers who wish Algeria to stay part of France and the Legion caught in between.

The following guns were used in the film Deserter (2002):

1 Handguns
1.1 SIG P210
2 Rifles
2.1 MAS-36
2.2 Mauser Karabiner 98k
3 Submachine Guns
3.1 MAT-49
3.2 Hotchkiss "Type Universal"
4 Machine Guns
4.1 Chatellerault M1924/29
4.2 MAS AA-52
4.3 Browning M1919A4
5 Miscellaneous
5.1 Mk II hand grenade
5.2 M29 mortar


PLEASE SEED !!!
  (Thank You)





